<?xml version="1.0" encoding="UTF-8"?><svg xmlns="http://www.w3.org/2000/svg" xmlns:xlink="http://www.w3.org/1999/xlink" height="260.9" preserveAspectRatio="xMidYMid meet" version="1.0" viewBox="-2.0 -2.0 262.8 260.9" width="262.8" zoomAndPan="magnify"><g id="change1_1"><path d="M157.755,129.471l95.329-95.329c7.811-7.811,7.811-20.474,0-28.284s-20.474-7.811-28.284,0l-95.329,95.329 L34.142,5.858c-7.811-7.811-20.474-7.811-28.284,0s-7.811,20.474,0,28.284l95.329,95.329L5.858,224.8 c-7.811,7.811-7.811,20.474,0,28.284c3.905,3.905,9.023,5.858,14.142,5.858s10.237-1.953,14.142-5.858l95.329-95.329l95.329,95.329 c3.905,3.905,9.023,5.858,14.142,5.858s10.237-1.953,14.142-5.858c7.811-7.811,7.811-20.474,0-28.284L157.755,129.471z" fill="#F88"/></g></svg>